<?xml version="1.0" encoding="UTF-8"?>
<!-- Created with Inkscape (http://www.inkscape.org/) -->
<svg width="60.152mm" height="44.267mm" version="1.1" viewBox="0 0 60.152 44.267" xmlns="http://www.w3.org/2000/svg" xmlns:cc="http://creativecommons.org/ns#" xmlns:dc="http://purl.org/dc/elements/1.1/" xmlns:rdf="http://www.w3.org/1999/02/22-rdf-syntax-ns#">
 <metadata>
  <rdf:RDF>
   <cc:Work rdf:about="">
    <dc:format>image/svg+xml</dc:format>
    <dc:type rdf:resource="http://purl.org/dc/dcmitype/StillImage"/>
    <dc:title/>
   </cc:Work>
  </rdf:RDF>
 </metadata>
 <g transform="translate(-44.007 -78.319)">
  <g transform="translate(-27.96 1.5672)" fill="#316081">
   <g stroke-width=".23812" aria-label="E||A">
    <path d="m76.369 100.62v-5.334h8.9218v-3.3655h-8.9218v-5.207h11.335v-3.5242h-15.716v20.955h16.161v-3.5242z"/>
    <path d="m97.197 76.751h-4.572v33.795h4.572z"/>
    <path d="m108.36 76.751h-4.572v33.795h4.572z"/>
    <path d="m127.58 104.15h4.5402l-7.6518-20.955h-5.2388l-7.6518 20.955h4.4768l1.7145-5.1117h8.0962zm-8.6995-8.3502 2.0002-5.969 0.889-3.1115h0.0635l0.9525 3.175 2.0002 5.9055z"/>
   </g>
   <g stroke-width=".21469" aria-label="documentation">
    <path d="m75.514 114.66v2.894c-0.25762-0.6183-0.83298-1.0047-1.5801-1.0047-1.2108 0-1.9665 0.83298-1.9665 2.2327s0.7557 2.2327 1.9665 2.2327c0.77287 0 1.3568-0.40361 1.5973-1.0477l0.02576 0.9618h0.38644v-6.2689zm-1.5286 5.9769c-0.99615 0-1.5887-0.70417-1.5887-1.8549s0.59254-1.8549 1.5887-1.8549c0.92745 0 1.5286 0.69558 1.5286 1.812v0.0859c0 1.125-0.60971 1.812-1.5286 1.812z"/>
    <path d="m79.245 116.55c-1.2709 0-2.0438 0.84157-2.0438 2.2327s0.77287 2.2327 2.0438 2.2327 2.0438-0.84157 2.0438-2.2327-0.77287-2.2327-2.0438-2.2327zm0 0.36926c1.0047 0 1.6144 0.70417 1.6144 1.8635s-0.60971 1.8635-1.6144 1.8635-1.6144-0.70417-1.6144-1.8635 0.60971-1.8635 1.6144-1.8635z"/>
    <path d="m84.293 116.55c-1.2709 0-2.0266 0.84157-2.0266 2.2327s0.74711 2.2327 2.0181 2.2327c0.88451 0 1.5629-0.4809 1.7862-1.2624l-0.39502-0.1374c-0.12022 0.64406-0.66982 1.0219-1.3998 1.0219-1.0047 0-1.5801-0.69558-1.5801-1.8549s0.59254-1.8549 1.5887-1.8549c0.69558 0 1.1593 0.3435 1.3482 0.97038l0.40361-0.18892c-0.26621-0.72994-0.87592-1.1593-1.7433-1.1593z"/>
    <path d="m90.355 116.64v2.4646c0 0.83298-0.59254 1.5372-1.5629 1.5372-0.73852 0-1.1851-0.37785-1.1851-1.2709v-2.7308h-0.42937v2.8339c0 1.0563 0.64406 1.5457 1.5457 1.5457 0.77287 0 1.3826-0.33491 1.6574-0.94462l0.01717 0.85875h0.38644v-4.2937z"/>
    <path d="m97.463 116.54c-0.69558 0-1.3912 0.36926-1.6316 1.0133-0.22327-0.66982-0.8244-1.0047-1.5372-1.0047-0.66982 0-1.2709 0.32632-1.5629 0.92744l-0.02576-0.84157h-0.38644v4.2937h0.42937v-2.4303c0-0.98756 0.72994-1.5715 1.5028-1.5715 0.72994 0 1.2366 0.4122 1.2366 1.2624v2.7394h0.42937v-2.4732c0-0.90169 0.66982-1.5372 1.4942-1.5372 0.72993 0 1.2366 0.42079 1.2366 1.2624v2.7394h0.42937v-2.7823c0-1.0648-0.71276-1.5973-1.6144-1.5973z"/>
    <path d="m104.14 118.68c0-1.2538-0.67841-2.1297-1.8721-2.1297-1.2538 0-1.9751 0.84157-1.9751 2.2327s0.75569 2.2327 2.0266 2.2327c0.85875 0 1.4427-0.36926 1.7604-0.97897l-0.36067-0.18892c-0.21469 0.50666-0.72994 0.79004-1.3998 0.79004-0.95321 0-1.5372-0.62688-1.5973-1.6746h3.4006c9e-3 -0.0687 0.0172-0.17175 0.0172-0.28339zm-1.8721-1.7518c0.8931 0 1.4084 0.62688 1.4685 1.6488h-3.0142c0.0601-1.0391 0.6183-1.6488 1.5457-1.6488z"/>
    <path d="m107.38 116.55c-0.71276 0-1.3225 0.32632-1.5973 0.94462l-0.0258-0.85875h-0.3864v4.2937h0.42938v-2.4217c0-1.0047 0.72993-1.5801 1.5372-1.5801 0.73853 0 1.2538 0.4122 1.2538 1.3568v2.6449h0.42938v-2.7823c0-1.0563-0.687-1.5973-1.6402-1.5973z"/>
    <path d="m112.6 120.31c-0.2061 0.2061-0.43797 0.31774-0.74711 0.31774-0.48949 0-0.7557-0.28339-0.7557-0.8244v-2.7909h1.6144v-0.36926h-1.6144v-1.1937l-0.42937 0.12023v1.0734h-0.85875v0.36926h0.85875v2.851c0 0.79864 0.44654 1.1593 1.1164 1.1593 0.41219 0 0.74711-0.14598 0.97038-0.36067z"/>
    <path d="m117.07 120.65c-0.25762 0-0.39502-0.14599-0.39502-0.45514v-2.2156c0-0.95321-0.62689-1.4255-1.5973-1.4255-0.85016 0-1.4513 0.37785-1.7003 1.0477l0.32633 0.24045c0.24044-0.62689 0.70417-0.91027 1.374-0.91027 0.7557 0 1.1679 0.42078 1.1679 1.0992v0.37785l-1.3139 0.23186c-1.1164 0.19751-1.6316 0.63548-1.6316 1.2881 0 0.71276 0.57536 1.0906 1.3998 1.0906 0.60971 0 1.2795-0.24903 1.5543-0.72993 0.0429 0.58395 0.35209 0.72993 0.70418 0.72993 0.18033 0 0.32632-0.0344 0.42078-0.0859l0.0258-0.3435c-0.0859 0.0429-0.21468 0.0601-0.33491 0.0601zm-2.3272-9e-3c-0.62689 0-1.0047-0.25762-1.0047-0.71276 0-0.48089 0.40361-0.78146 1.331-0.95321l1.1765-0.21468v0.79863c0 0.72135-0.8244 1.082-1.5028 1.082z"/>
    <path d="m120.36 120.31c-0.2061 0.2061-0.43796 0.31774-0.74711 0.31774-0.48949 0-0.7557-0.28339-0.7557-0.8244v-2.7909h1.6144v-0.36926h-1.6144v-1.1937l-0.42937 0.12023v1.0734h-0.85875v0.36926h0.85875v2.851c0 0.79864 0.44654 1.1593 1.1164 1.1593 0.4122 0 0.74711-0.14598 0.97038-0.36067z"/>
    <path d="m121.6 115.81c0.21469 0 0.36068-0.14599 0.36068-0.36068 0-0.21468-0.14599-0.36067-0.36068-0.36067-0.21468 0-0.36067 0.14599-0.36067 0.36067 0 0.21469 0.14599 0.36068 0.36067 0.36068zm0.21469 0.83298h-0.42937v4.2937h0.42937z"/>
    <path d="m125.12 116.55c-1.2709 0-2.0438 0.84157-2.0438 2.2327s0.77288 2.2327 2.0438 2.2327c1.271 0 2.0438-0.84157 2.0438-2.2327s-0.77287-2.2327-2.0438-2.2327zm0 0.36926c1.0047 0 1.6144 0.70417 1.6144 1.8635s-0.60971 1.8635-1.6144 1.8635c-1.0047 0-1.6144-0.70417-1.6144-1.8635s0.60971-1.8635 1.6144-1.8635z"/>
    <path d="m130.42 116.55c-0.71276 0-1.3225 0.32632-1.5973 0.94462l-0.0258-0.85875h-0.38644v4.2937h0.42937v-2.4217c0-1.0047 0.72994-1.5801 1.5372-1.5801 0.73852 0 1.2538 0.4122 1.2538 1.3568v2.6449h0.42937v-2.7823c0-1.0563-0.68699-1.5973-1.6402-1.5973z"/>
   </g>
  </g>
 </g>
</svg>
